<svg width="15" height="16" viewBox="0 0 15 16" fill="none" xmlns="http://www.w3.org/2000/svg">
<circle cx="7.5" cy="7.5" r="7.5" fill="#8CDFB2"/>
<path d="M7.488 5.356C7.28 5.356 7.104 5.284 6.96 5.14C6.816 4.996 6.744 4.82 6.744 4.612C6.744 4.404 6.816 4.228 6.96 4.084C7.104 3.94 7.28 3.868 7.488 3.868C7.688 3.868 7.856 3.94 7.992 4.084C8.136 4.228 8.208 4.404 8.208 4.612C8.208 4.82 8.136 4.996 7.992 5.14C7.856 5.284 7.688 5.356 7.488 5.356ZM8.016 6.424V13H6.924V6.424H8.016Z" fill="#053126"/>
</svg>
