<svg width="53" height="76" viewBox="0 0 53 76" fill="none" xmlns="http://www.w3.org/2000/svg">
<circle cx="29.6178" cy="53.0875" r="22.9118" fill="#ABD1B4"/>
<circle cx="26.2648" cy="49.1774" r="22.9118" fill="#47B25F"/>
<path d="M25.2612 55.3298C24.3012 55.2632 23.5212 55.1365 22.9212 54.9498C22.3346 54.7498 21.8946 54.5698 21.6012 54.4098L22.2812 52.5098C22.7079 52.7232 23.2212 52.9165 23.8212 53.0898C24.4346 53.2632 25.1279 53.3498 25.9012 53.3498C26.8212 53.3498 27.4546 53.2165 27.8012 52.9498C28.1612 52.6698 28.3412 52.3032 28.3412 51.8498C28.3412 51.5432 28.2679 51.2765 28.1212 51.0498C27.9746 50.8232 27.7679 50.6232 27.5012 50.4498C27.2346 50.2765 26.9146 50.1165 26.5412 49.9698C26.1812 49.8232 25.7812 49.6698 25.3412 49.5098C24.9279 49.3632 24.5146 49.1965 24.1012 49.0098C23.7012 48.8232 23.3346 48.5965 23.0012 48.3298C22.6812 48.0498 22.4212 47.7165 22.2212 47.3298C22.0212 46.9432 21.9212 46.4698 21.9212 45.9098C21.9212 44.9898 22.1946 44.2098 22.7412 43.5698C23.2879 42.9165 24.1279 42.4965 25.2612 42.3098V40.0698H27.3412V42.2298C27.9812 42.2832 28.5546 42.3765 29.0612 42.5098C29.5679 42.6298 29.9679 42.7498 30.2612 42.8698L29.7612 44.8498C29.3746 44.7032 28.9146 44.5632 28.3812 44.4298C27.8612 44.2965 27.2612 44.2298 26.5812 44.2298C25.8612 44.2298 25.3212 44.3632 24.9612 44.6298C24.6012 44.8832 24.4212 45.2365 24.4212 45.6898C24.4212 45.9565 24.4746 46.1832 24.5812 46.3698C24.6879 46.5432 24.8479 46.7032 25.0612 46.8498C25.2746 46.9832 25.5346 47.1165 25.8412 47.2498C26.1479 47.3698 26.4946 47.4965 26.8812 47.6298C27.4279 47.8432 27.9412 48.0698 28.4212 48.3098C28.9146 48.5365 29.3412 48.8098 29.7012 49.1298C30.0612 49.4365 30.3412 49.8032 30.5412 50.2298C30.7546 50.6565 30.8612 51.1632 30.8612 51.7498C30.8612 52.6298 30.5879 53.3898 30.0412 54.0298C29.4946 54.6698 28.5946 55.0832 27.3412 55.2698V57.7698H25.2612V55.3298Z" fill="#143F35"/>
<line x1="1.62177" y1="4.97803" x2="11.334" y2="18.4356" stroke="#053126" stroke-width="4"/>
<line x1="50.8175" y1="6.17626" x2="41.3162" y2="19.7835" stroke="#053126" stroke-width="4"/>
<line x1="26.5884" y1="4.88081e-08" x2="26.5884" y2="14.5294" stroke="#053126" stroke-width="4"/>
</svg>
