<svg width="22" height="25" viewBox="0 0 22 25" fill="none" xmlns="http://www.w3.org/2000/svg">
<path d="M0.862355 5.68082C0.862355 8.8039 1.60679 19.0008 10.8438 24.5701C11.0107 24.6698 11.2003 24.7222 11.3933 24.7222C11.5864 24.7222 11.7759 24.6698 11.9428 24.5701C21.1799 18.9978 21.9243 8.81171 21.9243 5.68082C21.9248 5.42425 21.8394 5.17551 21.6819 4.97627C21.5246 4.77707 21.3052 4.63983 21.0608 4.5876C16.8374 3.68713 13.429 1.3006 12.0517 0.228361C11.8625 0.0802486 11.6312 0 11.3933 0C11.1554 0 10.9241 0.0802486 10.7349 0.228361C9.35755 1.3006 5.9493 3.68713 1.72579 4.5876C1.48136 4.63983 1.26197 4.77707 1.1047 4.97627C0.947248 5.17546 0.861752 5.42422 0.862307 5.68082H0.862355ZM6.79265 12.8014L7.55228 12.0207C7.76314 11.8078 8.10106 11.8078 8.3119 12.0207L9.5678 13.2726C9.77922 13.4842 10.116 13.4842 10.3274 13.2726L15.4929 7.9634C15.7043 7.75182 16.0411 7.75182 16.2525 7.9634L17.0121 8.74417C17.218 8.96148 17.218 9.30764 17.0121 9.52494L10.3374 16.4426C10.126 16.6542 9.78899 16.6542 9.57777 16.4426L6.79242 13.5797V13.5799C6.58693 13.3635 6.58693 13.0181 6.79242 12.8016L6.79265 12.8014Z" fill="#053126"/>
</svg>
