<svg xmlns="http://www.w3.org/2000/svg" viewBox="0 0 416.44 416.42"><defs><style>.cls-1{fill:#1F5240;}</style></defs><g id="Capa_2" data-name="Capa 2"><g id="Layer_1" data-name="Layer 1"><path class="cls-1" d="M199.76,320.75c-7.86.61-11.92-6.58-17.09-11.32-7.46-7.56-20.2-12.41-22.9-23.34-1.19-7.74-.31-15.07-4.56-22.29-4.63-8-8.1-16.7-11.5-25.29-7.55-11.68-8.18-25.7-17.67-36.68-9.3-8.63-13.73-14.69-6.09-27.46,19.59-31.06,26.11-12.16,40.64-22.72,4.53-6.81,7.08-12.45,13.58-18.89,6.36-6.82,12.58-11.67,19-17.92,13.87-13.21.1-31.56,3-46.69a132.8,132.8,0,0,1,7.55-20.82c4.08-9.29,1.26-18.57-9.66-21-12-2.76-21.74-8.28-31.12-18-2.31-2.23-6.16-8.58-3.64-7.62.56,2.75,2.27,4.82,4.28,7,9.25,9.57,18.8,15,30.69,17.74,9.55,1.23,15.31,12.72,10.24,22.18A131.74,131.74,0,0,0,197,68.36c-2.69,15.47,11,33.27-3.21,47.09-12.08,10.75-25,22.39-32.54,36.71-7.74,8.16-21.08-.58-28.9,8.57-7.87,7.18-12,12.94-15,21.87-3.14,6.7,4.37,13.84,9.24,18.59,9.69,11.08,10.22,25.11,17.86,36.93,3.84,13.19,13.93,24.91,15.28,38.54-2.08,16,13.16,23.07,23.46,32.11,5.3,4.81,9.35,12.23,17.58,11.09,25.36,1.85,14.33-10.74,26.09-24.76,10.35-11,.72-29.5-5.47-39.76-6.61-11.21-20.06-2-30.31-6.43-11.37-4.15-12.76-17.71-7.08-27.8,3.22-7.1,1.2-15.31,3.92-22.66,8.25-13.78,26.93-13.63,37.26-30.36C247.06,147,233.5,142.58,242.56,120,253.17,99.35,230,73,242,52.47c2.42-3.83,4.76-9.12,4.91-14.08-.69-15.16,9.62-22.8,9.6-38,1.41,7.06-1.36,14.4-4.2,19.55-4.25,6.14-4.24,14.18-5,21.94-13.85,29.89-6.57,28-1.55,58.12,3,15.81-7,23.9-5.9,38.44-.16,8.22.27,15-6.68,21.72-7.59,8.18-14.45,19.1-23.8,23.51-32.16,14.9-15.9,19.64-27.58,46.46-2.16,7.73,3.35,15.68,9.65,18,10.4,4.3,24.09-4.81,30.73,6.78,6.44,10.6,16.07,29.5,5.4,40.8C215.72,310.67,226.73,322.64,199.76,320.75Z"/><path class="cls-1" d="M295.9,416.42c-1.85-1-1.14-4.66-1.67-6.63-.23-4.58-.47-9.3-.4-14,.58-8.21-3.95-17.71-4.93-26.49-2.06-11.84,7-22.65,3.07-34.51-2.28-8-4.44-16.92-6.07-25.34-1.22-7.07-6.7-4.68-11.41-5.89-8.21-2.39-6.8-9,.27-11.87,3.9-2,7.54-.62,11.08.67,10.62,1.84,21.11-13.4,17.28-24.25-2.42-9.85-10.48-16.36-14-26.65-1.81-4.58-4.41-7.67-7.94-9.44-7.69-3.23-17.9-4.73-18.13-15.07-.1-6.94-4.82-15.14-.89-21.44,7-6,16.05.88,23.08,3.12,16,3.81,9.25,32.79,28.15,28.55,21.7-3.31,14.49-25.16,26.43-24.85,9.23.44,34,13,34.16,23.6,1.06,9.64,1,19.17-8.54,23.85-15.09,6.09-25.39,16.43-33.74,30-7.85,13.49,4.25,24.48,6.9,38.58,3.76,12.56,9.14,28.84,21.63,34.56,44.87,17.65,28.08,11.74,40.58-22.41,4.7-9.56,2.18-16.08,1.38-24.93-.48-8,4.07-26.37,14.27-27.66-9.46,7.75-15,21.26-11.71,34.44,3.42,11.2-6.08,23.85-7.08,35.63-.76,6.71-.77,18.17-10.59,15.87-16.05-4.2-32.6-7.35-41.5-23C338,327.08,335,309.71,328.64,296.16c-5.76-12.4,6.56-25.42,14.42-33.58,5.33-5.39,13.47-11.37,21.55-14.29,8.87-4.37,8.54-13.25,7.63-22.18-.08-9.45-24-21.65-32.64-22-9.73-.64-3.53,25.71-31.54,25.06-14.76-1.67-8.91-25-23.49-28.87-6.55-2-14.47-8.39-21.15-3.56-3,6,1.25,13.59,1.33,20.11.22,9.73,10.17,10.42,17.18,13.69,3.93,2,6.8,5.36,8.78,10.35,3.57,10.3,11.77,16.93,14.11,26.93,3.55,9.91-3.83,22.55-14.22,26.4-5.18,1.83-10.06-3.85-15-.92-5.28,2.31-7.54,6.63-.56,8.68,5.48.75,11.15-.44,12.57,7.12,1.64,8.43,3.79,17.26,6.07,25.3,4.17,12-4.91,22.88-3,34.81,3.39,13.67,5.77,26.49,5.32,40.12C295.46,411.41,298,415.37,295.9,416.42Z"/><path class="cls-1" d="M347.82,189.21c-11.85-2.45-6.93-21-7.51-29.85,1.9-18.2,19.89-29.67,23.22-46.89C369.06,96.58,350,83.13,355.72,68c1.27-4.22,9.07-16.71-1.11-12-6.57,3.7-12.65-.48-18.56-3.26-7.26-3-13.64-1.72-19.27,2.19-8.8,7-24.36,13-35.12,20.55-13.69,10.41,5.18,29.72-2.37,43.34a76.59,76.59,0,0,0-3,9.85c-2.18,8.55,3.56,11.11,8.76,15.37,11.16,10.66,17.38,33.91,2.31,41.95-5.61,2.16-12.39-3.19-17.76-5.42-9.83-5.86-19.13,6.43-28.43.89-9.27-9.89,11.24-15.95,9.37-25.91-8-25.06-1.4-23,.1-45.47-.4-10.64-1.53-20.09,3.59-30.35,7.22-13.31,0-27.23,2.19-41.34.39-10.63,6.23-20.56,9.67-30.61,1.43-2.3,2.14-6.88,4.68-7.52,1.16,2.35-2.62,5.54-3.08,8.17-3.35,9.83-9.1,19.58-9.54,30-2.13,14.37,5,28.54-2.37,42.09-5,10-3.78,19.11-3.42,29.46,1,10.84-4.88,17.54-4.09,27.56,2.64,16.12,9.43,22-6,34.1-2.61,3.24-1.64,7,.06,8.53,4.69,3.2,11.36-1.32,16.41-2.25,6.45-2.31,13.5,1.92,19.29,4.91,6.44,3.64,11.65,2.14,14.69-4.83,5-9.72-.93-25.07-8.77-32.63-12.47-7.27-10.8-15.9-6.25-27.1,7.23-14.09-12.4-34.19,3.59-44.58,10.58-7.31,25.93-13.32,34.52-20.14,7.94-6.31,19.05-4.64,27.63.91a11.35,11.35,0,0,0,10.79-.16c4.1-2.44,9.43-.38,6.83,5.14-16.21,30.51,21.74,35-4.37,71.68-5.14,8.65-13.91,17.13-14.61,28.36-.57,17.72-3.37,39.19,19.86,20.42,9-5.64,23.24-4.19,26.18-16.55,2.21-8.48,4.56-16.25,13-21.22,4.41-2,11-8.23,15.1-8a.86.86,0,0,1-.3,1.18c-4.62,2.77-9.29,5.42-13.87,8.32-14.35,7.16-7.91,28.2-24.3,32.28-5.07,1.52-10.34,2.78-15,5.52C358,183.87,353.29,188.93,347.82,189.21Z"/><path class="cls-1" d="M60.27,328c-1.8-.87,3.79-1.84,4.27-3.13C67.08,325.17,61.27,328.07,60.27,328Zm-5.13-.19c-1.52-.57-4.67-1.38-4.89-3.11,1.56,0,3.17,2.13,5,2.26A.44.44,0,0,1,55.14,327.79Zm13.12-6.05c-1.2-.64,1.91-3.76,1.94-5.2C72.43,315,69,321.72,68.26,321.74Zm-20.93-.36c-.68.11-3.57-6.95-1.47-5.36C45.89,317.93,48.39,320.4,47.33,321.38Zm25-9.14c-.9-.05-.06-1.37,0-1.79.37-.67,1.34-5.57,2.09-3.41C73.65,308.62,73.56,311.07,72.35,312.24Zm-28-.75c-.43,0-2.82-7.49-1-5.57C43.61,307.49,45.46,310.26,44.35,311.49Zm31.55-9c-1.1-1.27,1.57-3.95,2-5.27C80,295.92,76.45,302.06,75.9,302.49Zm-35.35-.59c-.32-.16-5.2-6-2.77-4.86C38.36,298.14,41.86,301.07,40.55,301.9Zm40.9-8.11c-1.22-1.29,2.86-3.11,3.85-4C87.67,289.72,81.94,293.13,81.45,293.79Zm-47.32,0c-1.15-1.22-3.52-3.15-3.6-4.75C31.07,288.53,35.61,293.71,34.13,293.75Zm98.73-.8c-.68.14-3.22-.23-1.66-1a13.28,13.28,0,0,0,5-.32C138.1,292.71,133.67,293,132.86,293Zm-6.8-1.12c-1.7-.34-3.45-.76-5.16-1.13a.44.44,0,0,1-.33-.52c.13-.67,1.29-.08,1.67-.07C123.09,290.56,127.59,290.55,126.06,291.83ZM141,290.39a.44.44,0,0,1-.25-.79c1.57-.62,2.56-3.25,4.12-3.67C145,287.69,142.27,289.55,141,290.39Zm-25.08-.78c-1.16-.49-7-.66-5-1.87C111.55,288.15,117.6,288.22,115.93,289.61Zm-25.65-1c-2.07-.94,5.28-2.47,5.51-1.51C94.65,288.24,91.85,287.78,90.28,288.57Zm15.43-.8c-1.11-.47-6.95.16-5.15-1.3C101.29,286.69,107.43,286.26,105.71,287.77Zm-78.23-2c-5-4.44-4.63-7.32.33-.71A.44.44,0,0,1,27.48,285.79Zm119.57-3.66c-1-1.16,1.07-3.79.83-5.51C149.69,274.71,147.92,282,147.05,282.13ZM20.58,278c-1.25-1.23-3.89-2.34-4.45-3.86C16.67,273.47,22.3,277.71,20.58,278ZM12,272.34c-1.47-.95-4.39-1.06-5.25-2.45C7,269.06,14,271.72,12,272.34Zm136.39-.4c-.45.08-2.54-7.66-.81-5.6C147.73,268,149.51,270.68,148.35,271.94ZM2.2,268.82c-.83-.08-2.72-1-1.14-1.26C1.56,267.67,3.55,268.29,2.2,268.82ZM145.54,262c-.63-.07-3-7.21-1.1-5.51C144.52,258.18,146.6,260.8,145.54,262Zm-2.79-10c-.67-.23-2.75-7.41-1-5.56C141.83,247.89,143.81,250.71,142.75,252Zm-3-9.93c-.56-.21-3.52-7-1.54-5.42C138.45,238.11,140.8,240.83,139.72,242Zm-4.18-9.49c-3.68-5.14-2.78-8.88.39-.62A.44.44,0,0,1,135.54,232.55Zm-3.9-9.61c-.5-.19-3.44-7-1.5-5.44C130.48,219,132.73,221.73,131.64,222.94Zm-4.35-9.39c-4.65-4.91-4-7.78.37-.66A.44.44,0,0,1,127.29,213.55Zm-6.56-8c-1.44-.94-2.71-2.43-4.22-3.46C115.22,199.4,122.81,205.49,120.73,205.54Zm-7.9-6.73c-.84-.53-5.67-4.72-3.31-4.41C109.93,195.56,114.12,197.81,112.83,198.81ZM106.06,191c-1.49-.65-3.18-7.07-1.28-5.27C104.15,186.86,107.23,190.55,106.06,191Zm-.15-9.71c-1.18-1.13,1.84-3.53,2.54-4.72.28-.63,1.24-.24.82.37C107.91,178.14,107.15,180.17,105.91,181.28Zm6.17-8.33a.43.43,0,0,1-.35-.68c.36-.17,3-5,3.66-4.3C116.22,168.16,112.31,173,112.08,173Zm6.1-8.39a.44.44,0,0,1-.35-.69C122.33,156.76,122.76,159.91,118.18,164.56Zm6-8.45c-1.23-.58,1-2.16,1.28-3C130,147.59,126,155,124.22,156.11Zm7.25-7.2c-2.07-1.1,5.29-2.54,5.49-1.43C135.78,148.58,133,147.87,131.47,148.91Zm10.25-1.15c-1.74-1.55,4.19-.71,5.16-1C148.72,148.23,142.59,147.52,141.72,147.76Zm10.3-1a.44.44,0,0,1-.13-.85,9.37,9.37,0,0,0,4.18-2.61C158.69,143.27,153.1,146.84,152,146.78Zm8-6.39c-1.31-.65,1.28-2,1.67-2.79.37-.17,1.7-2.31,2.24-1.69S160.68,139.92,160,140.39Zm7.23-7.45a.44.44,0,0,1-.31-.74c.38-.11,3.72-4.49,4.23-3.73C171.89,128.91,167.52,132.84,167.26,132.94Zm7.26-7.42c-1.3-1,2.76-3.25,3.42-4.37C180.34,120.78,175.1,125.08,174.52,125.52Zm7.58-7.09c-1.63-.58,3.1-3.3,3.61-4.17C188.19,114,182.69,118,182.1,118.43Zm7.65-7c-1.17-1,2.38-3.37,2.53-4.89C194.6,105.67,190.64,111.12,189.75,111.43Zm4.51-9.19c-1-1.15.38-3.85-.09-5.58C195.59,94.42,195.22,102.24,194.26,102.24Zm-.38-10.3c-.38.12-3.08-7.24-1.19-5.52C193.06,88.24,195,90.76,193.88,91.94Zm-3.69-9.7c-3.41-5-2.47-9.11.4-.64A.45.45,0,0,1,190.19,82.24Zm-2.93-9.89c-1.06,0-.64-7.95.54-5.54C187.16,68.49,188.28,71.15,187.26,72.35Zm1.42-10.19c-1.05-1.28,1.07-4,1.07-5.52C191.57,55,189.44,61.77,188.68,62.16Zm2.73-10c-1-1.23.59-4,.33-5.6C193.3,44.51,192.27,51.93,191.41,52.15Zm.41-10.27c-1.12-1.22-1.37-3.43-2.91-4.54C188.73,34.57,193.53,41.4,191.82,41.88Zm-6.57-7.77c-.68-.57-6.08-3.94-3.77-4C182.2,31.12,186.62,33.06,185.25,34.11Zm-8.11-6.48c-.7-.54-6.11-3.93-3.78-4C174.07,24.68,178.51,26.59,177.14,27.63Zm-8-6.56a35.3,35.3,0,0,1-4.16-3.57c-.25-2.33,3.43,2.31,4.24,2.64C169.62,20.35,169.66,21.05,169.1,21.07ZM161.52,14c-.64-.47-5.57-4.79-3.25-4.5C158.88,10.75,162.8,13,161.52,14Zm-6.7-7.89c-1-.31-3.3-6.91-1.31-5.36C153.24,2.34,155.86,5.09,154.82,6.1Z"/><path class="cls-1" d="M53.22,287.93c-13.51-.32-28.71-19.4-19-31.45,3.14-4.26,9.28-7.38,10.1-12.73-2.07-8.2-11.54-11.44-20.82-12.25-7-1-14,4.5-19.95,8.67-.82.38-3.39,2.77-2.89.87,6.93-4.47,14.69-11.53,22.9-10.4,9.66.82,19.7,4.38,21.62,13.11-2.14,9.8-18,13.83-12.31,26.14,2.16,9.54,20.24,24.92,26.52,13.07,2-6.39,2.48-13.09,3.81-19.64,2.59-11.3,20-9.09,27.37-3.56,7.88,4.93,18,11.58,27.53,9.46,10.72-2.47,12.56-17.11,7.15-26-4-7.94-2.1-18.59-8.25-25.19-7.86-9.31-27.83-15.94-33.55-2-1.75,4.16-6.69,11.1-10.64,6.66-1.75-3.7,2.13-7.38,3.74-10.17,7.35-9.63,9.67-22.89,1.61-34.33-7-8.29-15-12-21-21.63-13.8-13.94-13.49,27.1-17.09,34.29-.74,6.88-7.24,11-13.88,10.65-8-1-18,3.39-25.74,5.18,24.11-14,37,7.54,41.69-29.5,1.52-7.91,3.16-33.46,15.73-21.12,6,9.65,13.93,13.27,20.92,21.59,8.37,11.82,6,25.47-1.58,35.38-1.37,2.46-5.15,6-3.67,9.26,4.06,3.18,7.25-3.05,9.09-6.62,6-14.46,26.73-8,35,1.81,3.77,4.18,4.73,9.33,5.51,15.15.67,8.57,7.36,15.95,5.89,24.63-3.93,21.28-27.29,12-38.94,3.24-10.29-7.32-27.94-6.43-27.15,9.33C61.24,276.24,62.6,288.12,53.22,287.93Z"/><path class="cls-1" d="M.92,195.33c-1.81-1.37,15-5.58,17.11-6.63,16.72-6.6,10.86-29.43,16.4-43.32C47,121.54,32.05,129,22.05,98.19c-3.72-5.16,4-7.39,8-9.65,12.37-6.7,38.39-21.91,49.23-5.68,3.85,9.71,16.91,19.65,8.28,30.05-10.78,10-19.47,24.56-11.56,38.8,12.69,19.91,38.39-14,34.45-28.08-.51-10-4.23-19.93-5.44-30.45.43-10.26,5.72-21.73-3.9-29.58-5-4-6.13-11.29-7-17.47C92.8,24.62,61,22,63,.37c1,21.52,30,23.92,32,45.62.86,6,1.87,13.12,6.72,17,9.88,8,4.75,19.74,4.19,30.23,1.24,10.43,4.92,20.38,5.43,30.29,4.11,15-22.75,49.61-36,28.69-8.09-14.52.54-29.62,11.61-39.76,8.3-10.1-4.8-19.69-8.37-29.17-10.79-15.48-36-.35-48.06,6.08-3.28,2.18-11.08,3.74-7.61,8.52,3.8,8,6.08,16.75,12.29,23.48,5.9,5,6.57,12.94,2.31,19.38-9.11,14.82-.08,41.19-19.15,48.84C12.42,191.33,6.71,193.45.92,195.33Z"/><path class="cls-1" d="M59.36,314.31c-2,.08-3.84-1.74-4.43-3.66-6.45-15.22-23-23-31.44-37.12-5.31-6.11-13.19-8.68-20.13-12.4L.74,259.82a.87.87,0,0,1,.78-1.55c15.1,6.94,21.38,10.24,31.21,24.1,8,9.43,19.66,15.75,23.89,27.82,6.17,10.93,14.66-21.19,17.86-25.13C80.09,268.61,98.62,277.7,111,279c30.12,8.13,27.58-27,18.48-45.09-3-10.37-7.08-21-16.46-26.43-13.77-9-20-12.38-23.83-29.64-1.91-4.8-6.38-7.47-10.42-10.28-10.71-5.6-13.49-18-19.62-27.53-1.7-2.55-3.34-2.95-5.86-1.44-25.46,11.12-6.74,50.25-30,56.79-2.69-.76-27.8,9.47-22.58,4.54,31.89-10.28,31.3-2.44,36.06-38.71.92-11,5.23-18,15.59-24.11,10.15-5.41,13.3,15.16,18.27,20.81,5,8,16.31,10,20.13,19.29,3.27,13.09,6.73,18.91,18.23,25.4,11.89,6.48,18.93,17.32,22.08,30.75,7.7,15.14,12.73,49.24-12.69,48.36-6.5-.47-12.81-2-19.23-3-9-2.18-19.46-4-23.1,7.14C70.92,293.6,68.41,311.7,59.36,314.31Z"/><path class="cls-1" d="M301.71,416c-2.28-10.85,3-18.85,1.09-29-2.65-8.81-10.19-14.76-6.92-26,4.65-12.1,3.68-24.78-.19-36.93-5.61-14.69,10-40.81,25.65-28.24,6.78,6.07,10.66,18.05,13.62,27.46,3.6,12,8.72,23.69,13.84,35.19,3.82,9.3,23.58,5.48,31.91,10.43,18.18,9.91,25.73,9.33,22.24-13.74-4.78-16.47,12.2-27,8.87-43.56-2.46-8.33-1.93-17.17,3.31-23-.37-.83,1-1.51.86-.24a25,25,0,0,0-3.34,23c2.8,24-14,16.49-8,56.18-1.65,15.1-16.26,5.89-24.22,2.16-6.6-2.58-16.44-4-24.18-4.68C335.88,362.35,333.32,274,304.7,297c-18.53,13.78-1.43,35.59-5.34,53.67-10,29.62,7.11,23.72,4.32,46.1C302,402.05,302.79,409.26,301.71,416Z"/><path class="cls-1" d="M53,416c-.19-8.52,10.83-17.29,17.59-22.55,47.94-34-18.9-55.42,30.94-59.45,20.15-2.78,42.28,11.35,36.92-21.35-1.1-13-27.14-18.4-39.75-17.67-19,.91-19.41,20.87-23.75,34.35-8.17,20.93-39.62,1.12-39.44-16.66-1.3-11.06-9-19.19-15.26-27.6A29.12,29.12,0,0,0,2.7,274.39c-.71-.35-2-.54-2-1.43a32.89,32.89,0,0,1,22.08,14c5.82,7.66,12.44,15.47,13.58,25.63-.27,16.87,29.91,36.44,37.75,16.51,4.32-13.82,5.08-34.06,24.51-34.95,13.28-.72,39.46,4.79,40.68,18.45,5.28,33.4-16.8,19.74-37.7,22.29-48.34,3.51,17.9,24.57-30.49,59.26C63.55,399.33,55.61,407.66,53,416Z"/><path class="cls-1" d="M144.22,140.26c-13.9,1.09-19.27-14.53-20.22-25.84a34.22,34.22,0,0,0-5.32-13.34c-8.07-12.42-1.74-24.9-3.45-38.59,0-6-4.07-8.17-7.69-11.55-8.52-8.58-9.12-23.61-20.47-29-8.45-5.42-17.76-9.69-18.7-21-.06-.53.8-.68.86-.11.92,11.09,10.09,15.11,18.29,20.42,11.21,5.13,12.57,21.08,20.6,29.13,3.84,3.51,8,5.93,8,12.14,1.75,13.56-4.59,25.88,3.32,38.18,9.19,12,2.88,34.68,20.89,38.39,15.77,2.83,27.44-16.3,38.5-25.13,15.73-11.26,8.72-25.19.64-38.53-5.32-7.81-1-17.42.16-26,.48-17.06-29.5-31.16-33.18-47.72-1.64-.74.4-1.6.84-.25,1.63,8.44,10.82,15.22,16.31,21.79,6.05,7.69,18.09,15.61,16.89,26.28-1,8.36-5.46,17.88-.26,25.5,8.31,13.6,15.23,28.1-.8,39.57C168.67,123.3,158.84,139,144.22,140.26Z"/><path class="cls-1" d="M146.08,132.15c-13.79-.16-9.92-16.91-13.15-25.46-14.6-19.7-13.28-31.16-5.2-53.2C129.61,42.46,109.08,47,106,35,101.11,23.15,100.85,15.6,86.78,13,80.45,10.61,74.13,6.15,74.43.24c1-.43,1.32.76,1.68,1.46C78.42,8.09,86,11.5,92.85,13.21c9.58,1.39,11.05,13.56,14.76,21.07,2.52,11.23,24.19,6.35,21.78,19.69-8,22.14-9.36,32.17,5.08,51.94,3.28,8.65-.23,28.68,15.39,23.8,12.59-4.7,19.46-14.92,28.71-24.47,8.66-10.9-2.18-19.06-7.07-27.75-16.81-22.11,4.44-33.19-21.29-57.22C144.88,14.83,139.4,8.88,136.1,1.36c-.63-1.3,1.58-2,1.65-.54,3.2,7.19,8.52,13,13.7,18.24C172.38,40.94,163.17,43.24,167,65.53c3.56,13.26,24.86,26.81,12.85,40.87C169.6,116.75,161.24,130,146.08,132.15Z"/><path class="cls-1" d="M58.84,416c.44-7.41,9-13.79,14.38-18.81,48.09-37-12-61.3,61.09-56.16,20.11-2.77,4-27.44,16.66-37.2,16.57-10.69,33.72,14.55,34.46,29.5,1.54,5.31-5,9.53-5.32,14.27,1.95,5.32,6.78,9.49,5.75,15.91-1.54,12.72-4.77,23.42-14.65,30.45-6.52,6.24-19.73,5.38-22.63,15.25-.66,2.06.69,5.2-.48,6.79-5-15.16,14.3-16,22.61-22.75,11.21-8.25,19.71-29.66,9.86-42.43-4.79-6.43,5.87-10.94,4-17.41-.55-14-17.08-39-33-28.94-11.73,9.6,2.86,35.79-17.07,37.4-72.54-5-11.92,18-60.69,56C67.59,402.77,62,408.8,58.84,416Z"/><path class="cls-1" d="M381.86,353.19c-30-3.63-36.84-18.58-42.62-45.43-5.62-15.27-4-24.44,6.39-36.5,5.86-7.37,12.58-11.73,20.54-13.34,23.57-3.89,7.57-36.84,39.27-47.58,1.46-.28,12.19-1.32,10.25.35-17.05-2.2-30.72,13.09-33.08,29.1-5.39,29.2-25.84,8.56-43.14,42.12-5.22,7.24-1.71,17.37.61,25.63,3.72,13.39,6.4,31.59,20,37.82,6.71,2.58,24.55,14.1,29.36.66,3.65-11,9.95-23,6.06-34.55-4-15.48,2.74-40.2,20.39-42.58-16.62,5.09-23.63,26.17-19.55,42.37,1.24,4.86,2.15,10.08.44,15.37C393.09,334.65,392.48,352.65,381.86,353.19Z"/><path class="cls-1" d="M136.89,416c-12.08-31,15.43-19.67,31.74-29.39,10.81-7.64,9.47-25.37-2.5-32.17-6.44-4.86-11.35-10.37-20.85-7.79a90.13,90.13,0,0,1-22.73,1.88c-9.08-1.27-20.55-.65-21.33,11.47a72.44,72.44,0,0,1-8.14,24c-7.58,14.3-20.22,18.26-28,31.74,5.36-14.55,20.44-17.58,27.22-32.15a71.51,71.51,0,0,0,8.06-23.73c.84-12.57,12.72-13.62,22.21-12.21a88.94,88.94,0,0,0,22.52-1.87c10.44-2.85,15.77,3.82,23,9,11.48,7.5,11.58,25,1,32.5C150.86,398.43,128.59,383.51,136.89,416Z"/><path class="cls-1" d="M27.18,80.88C16.31,80.62,10.51,66.09,3.53,59c-7-8.08,1.05-18.29,9.23-22.8,5.52-3.38,15.67-6.32,17.14-12.86C31.51,14.47,19.74,7.54,16.42.69c16.81,16.13,22.4,25.62-3.24,36.21C-8,50.14,5.29,59.67,16.19,73.45,21.2,82.13,31.42,80.94,40,76c12.68-8.29,35.67-2.9,42.47-17.85,3.5-8.36,2.73-15.89-2.38-23.05-9-12.07-24.44-16.9-25-33.71-.48-.28,0-1,.48-.71a2.24,2.24,0,0,1,.83,2.49c.39,15.09,16.86,20.19,24.43,31.43C86,41.9,86.87,49.93,83.28,58.46c-4.4,11.27-19.15,11.26-30.39,13.75C44.05,73.57,36,80.69,27.18,80.88Z"/><path class="cls-1" d="M356.37,173.31c-4.84,0-7.85-2.48-9-7.38-3.37-15.15,9.75-27.06,16.4-39.36a65.44,65.44,0,0,0,8.1-35.93c-1.19-9.09,8.21-17.75,17.08-16.15a27.11,27.11,0,0,0,15.53-1.64c3.51-1.42,7.27-2.92,10.79-4.36,2.38.48-2.7,1.9-3,2.14-7.39,3.18-15.61,6.61-23.52,4.7-6.31-1.23-14.19,4-15.63,10.28-1.33,9.73,1,17.68-2.94,27.35-3.42,19-25.46,32.49-22,52.77,3.33,12.19,19.25,5.08,28,2.75,7.64-2.43,8.83-13.38,12.08-20,5.38-9.25,19.54-14.4,26.44-21.76.93-.85,2.14.38.55.67a184.54,184.54,0,0,1-19.55,14.36C376.88,158,395,171,356.37,173.31Z"/><path class="cls-1" d="M126.92,416.42c-4.46-8.53-5.63-20.12,3.36-27.65,10.17-11.35,29.17-.42,36.52-14.06,2.17-6.54-2.08-11.56-7.74-15.33-13.05-8.13-29.26-3.68-43.59-2.72-15.44,4-14.27,43.4-29.25,50-5.32,2.48-8.87,5.34-11.16,9a.87.87,0,0,1-1.73-.05c4.85-10.54,16.21-8.41,19.57-19,5.74-10.59,9.86-39.49,22.24-41.61,14.79-1,31.42-5.5,44.86,3,9.38,4.9,13.15,18.36,2.83,23.65-10.56,4.76-22.2-.19-31.37,8.45-8.79,7.4-6.25,16.19-3.69,25.33A.87.87,0,0,1,126.92,416.42Z"/><path class="cls-1" d="M33.14,413.21c-11.11-3-15-12.3-29.27-9.87-.3-.07-4.91.36-2.95-.88,11-.9,18.52.74,27,8,11.18,9.06,20.42-18.35,36.88-26.33,21.78-16.24,4.11-21.22-10.61-30.22C40.87,343.51,25.91,338.32,18,321.72c-4.82-7.18-1.16-13.78-2.65-21.48-1.5-9.42-7.52-13.74-14.87-16.6,11.12.23,17.9,14.64,15.9,25.28-1.17,22.8,23.28,32.69,38.32,44.24,7.49,6.27,27.78,9.82,19,23.37-4.8,7.21-11.59,9.93-18.12,15.51C47.41,397.76,43.51,411.2,33.14,413.21Z"/><path class="cls-1" d="M364.94,165c-26-3.2,5.39-30.28,6.8-42.47,2.68-9.07,6.09-17.84,8.8-27C382.92,85.4,391.74,85.14,400,83.2c5.54-1.51,10.15-4.84,15.29-7.22,2.75.58-13.31,7.79-15.07,8-7.88,2-16.55,1.94-18.84,11.75-3.69,11.22-7.14,22.39-11.07,33.46-4.62,10-16.15,18.42-14.08,30.46,5.3,9.31,21.35,3.28,23.12-5.64,2.86-19,22.73-17.76,30.45-34.27,1.89-2.38,3.49-6.3,5.93-7.65-4,6.77-8.76,14.9-15.38,20.19-5.26,4.15-15.79,7.91-17.86,14.79C380.54,156.05,375.7,165.61,364.94,165Z"/><path class="cls-1" d="M46.38,416c3.15-18.82,24.93-24.63,34.68-39.9,9.44-16.06-10-23.48-21.78-28.69A133.67,133.67,0,0,1,35.73,332c-8.49-6.15-9.12-17-10.37-26.8-3.25-12.93-12.06-23.31-24.85-27,13.07.68,22.74,15.32,25.69,26.83,1.29,9.65,1.74,20.29,10.08,26.32a132.9,132.9,0,0,0,23.4,15.27c12.41,5.25,31.89,13.46,22.13,29.89C70.5,392.92,53.87,395.44,46.38,416Z"/><path class="cls-1" d="M289.67,416c-4.52-12.55-1.66-30.61-4.93-42.28-2.06-6.93-1.08-14.64-4.8-21-3.46-3.26-9.74.48-13.66.33-25.88-1-23.09,24-31.08,41.67-4,7.72-1,14.18,3.91,20.91-7-5.07-8.18-14-4.7-21.28,8-18,5.48-43.14,31.74-42.15,4.31.11,10.7-3.87,14.48,0,3.9,6.38,2.86,14.26,4.95,21.3C288,385.27,287.67,403.33,289.67,416Z"/><path class="cls-1" d="M398.37,67.88c-1.3-.23-3.8.29-4.4-.94,1.38-.77,3.77.51,5.55,0C400.85,67.57,399.05,68.07,398.37,67.88Zm6.27-1c-1.78-1.12,4-1.87,4.8-2.43C411.79,65.29,405.36,66.53,404.64,66.9Zm-15.12-1.19c-1.44-.89-4.3-1.85-4.76-3.43C384.94,61.64,391.52,65.6,389.52,65.71Zm25-2c-1.31-.49.52-1.14,1-1.23C417,62.71,415.43,63.6,414.51,63.69ZM380.86,60c-.29-.21-5.18-3-4.59-3.68.34-.85,4.46,2.86,4.84,2.89A.44.44,0,0,1,380.86,60Zm-8.5-6c-1.52-.95-4.12-2.89-3.71-4.56,1.45.54,2.07,3,3.87,3.71A.44.44,0,0,1,372.36,54Zm-5-8.68c-.47,0-.45-.59-.5-.91.16-1.12-1.71-6.13.09-4.74C366.93,41,368.43,44.47,367.33,45.36Zm-2.39-10.07c-1.22-1.18-1.64-3.38-2.87-4.7-.12-1.69,1.39.25,1.65.93C364,32.49,366.1,34.57,364.94,35.29Zm-25.82-4.4c-1.27-.25-7,.18-5.14-1.22C334.34,30,341.1,29.46,339.12,30.89Zm5.13-.58c-1.57-1.13,3.57-1.78,4.34-2.89a.47.47,0,0,1,.71.06C348.84,29.14,345.74,29.7,344.25,30.31Zm-15.47-.23c-1.74-.14-3.48-.22-5.22-.36C320.92,28.26,331.5,28.93,328.78,30.08ZM318.46,29c-1-.23-7-1.71-4.7-2.51C314.36,27.26,320.26,27.87,318.46,29Zm40.25-1.79a7.8,7.8,0,0,0-4.92-1,.43.43,0,0,1-.49-.37C353.36,24.31,360.73,26,358.71,27.19Zm-49.47-2.72c-.84-.27-5.45-5.12-3-4.57C306.53,21.38,310.49,23.5,309.24,24.47Zm-5.7-8.54c-.5.07-3.43-7-1.41-5.44C302.39,12.41,304.6,14.78,303.54,15.93Zm-3.48-9.78C299.45,6,296.9-.91,298.8.66,299,2.29,301.12,5,300.06,6.15Z"/><path class="cls-1" d="M401.61,59.59c-10.69-.87-16.11-12.36-18.51-22.17-.91-4.43-1.77-8.62-5.1-11.8-7-7.36-15.56-13.25-23.83-19-9.85-7.14-10.7,18.21-34.67,13.61-9.59-.69-16.26-11.57-16.66-19.8,4.86,17,15.88,23.82,32.94,16.66C355,.74,344.62-1,369.82,16.91c18.24,11.63,10.46,26.92,24.77,39.19,5.86,6.06,15-.34,21.5-.83C412.36,57.54,406.24,59.09,401.61,59.59Z"/><path class="cls-1" d="M288.05,59.89c-17.39-1.09-27.82-16.2-19.33-32.65,3.37-9.41,5.55-21.65,15.63-26.64a.44.44,0,0,1,.26.83c-2.2.68-3.6,2.31-5.09,4-7,8-8.19,18.23-11.85,27.65C259.41,57,297,68.63,306.74,48.55c1.92-3.39,1.57-6.89-1.07-10.72-4.22-6.09-6.36-12.89-8.52-20.51-1.37-4.79-2.7-9.75-5.57-14a16,16,0,0,0-2-2c-.49-1.15.93-.62,1.27,0,8.49,10.12,7.54,25.82,15.54,36C314.52,49.21,299.54,60.32,288.05,59.89Z"/><path class="cls-1" d="M258.77,416c-26.52-7-18.15-24.83-10-44.29,4.75-9.65,19.25-15,27.55-7.86,6,8.43,5.7,19.86,5.07,29.31-1.06,7.46-.89,15.76-1.23,22.82-2.14-6.9.13-15.49.37-22.88.27-9.14,2-28.32-9.8-31.22-18.21-3.29-25.33,15.83-28,30.34-5.17,12.94,5.57,20.63,16.81,22.8C260.7,415.31,259.47,416.18,258.77,416Z"/><path class="cls-1" d="M33.91,397.56c-8.78-1.24-15.92-5.6-25.5-4.62-1.18-.18-9.42.77-7.49-.85,21.48-2.82,32.59,10.71,40.94.3,4-5.75,12.66-11.51,13.59-19.08-1.64-6.35-6.07-10.15-10.28-15.52-6.77-7.25-17.78-7.15-22.6-17C16.36,331.55,10.82,323.33.85,320.7c-.54-.05-.42-1,.14-.85,16.67,3.15,19.51,25.64,35.14,31,8.08,2.57,26.46,20.93,17.61,28.83C47.11,386.34,43.74,396,33.91,397.56Z"/><path class="cls-1" d="M224.24,43c-2.51-.09-3.65-2.82-4.28-5.19-.37-29.26-19.16-19-39-24.41-5.08-1.95-13.94-5.6-16.06-13,4.35,6.06,10.51,10.59,16.35,12.16,20.27,5.22,39.08-4.51,39.54,25.08,1.87,8.82,9.18,2,9.84-4.16a21.38,21.38,0,0,1,6.4-11.44C243,17,247.44,9.58,245.61,1.5c-.23-.66.57-1.77.9-.69,1.71,8.62-2.43,16.47-8.87,21.88C230.5,27.62,233,40.85,224.24,43Z"/><path class="cls-1" d="M382.33,207.39c-5.81-1.17-14.92-11.7-13.46-17.61,2.92-10.3,20.62-6.59,22.71-18,2.69-9.85,4.28-21.66,14.13-26.6,2.24-1.75,16.09-8.34,7-2.85-26,10-11.28,31.55-29.44,38.93-7.13,2.13-17.92,6.07-12.19,14.83,3.64,4.12,9.19,15,15.86,8.23,4.76-4.19,7.42-11.25,13.66-13.39,2.7-2.62,21.62,1,13.47.76C393.11,186.1,395.79,203.17,382.33,207.39Z"/><path class="cls-1" d="M383.91,416c-5.33-6.95-4-16.39-5.43-24.56-.46-4.38-1.66-10.14,4.92-8.24,12.58,4.62,30.14,4.91,28.9-13.1-1.61-14.49-9.39-26.81,3.47-38.78.61.5-.31,1.59-.62,2.12-11.21,10.73-3,23.92-2,36.67-1,24.64-18.95,14.57-33.83,14.1-1.09,4.85.76,10.54.9,15.56.46,5.34.94,10.85,4,15.56A.44.44,0,0,1,383.91,416Z"/><path class="cls-1" d="M160.55,416c1.67-11,15.45-16.67,21.45-25.8,5.25-6.45,9.54-17.22,18.36-18.31,9.35-1.61,16.69.75,25.7,4.35,5.41,2.25,3.35,10.17,1.31,14.38-4.86,9.42-1.2,17.14,1,25.35-1.87-1.75-2.32-5.61-3.44-8.18-5.21-9.5,9.49-25.32.81-30.75-8.89-3.54-16.05-5.88-25.25-4.3-8.54,1.11-12.65,11.74-17.79,18C175.84,399.78,165.11,405.29,160.55,416Z"/><path class="cls-1" d="M.92,188.27a.44.44,0,0,1-.17-.83c9.84-4.4,19.52-6,23.26-18.41,3.32-8.81,2.38-18.55,2-27.87-.37-5.27-9.3-19-13.49-21.79-4.11-.13-7.64,7.48-12,6.75,3.78-1.73,8-7.35,12.1-7.61,4.57,1.85,6.57,8.72,9.85,12.4,7.43,10.64,5.55,26.51,2.37,38.41C21,182,11.06,183.89.92,188.27Z"/><path class="cls-1" d="M26.77,380.1c-9.78.46-15.3-11.47-25.23-10.25-.69.06-1.67-.82-.54-1a11.43,11.43,0,0,0,2.2.39c4.6-.05,8.64,1.67,12.37,5.31,4.7,5,15.9,7.72,18.5-.43,3.53-10.72-13.81-7.43-15.69-16.15-1.39-11.85-5-24.31-17.56-28-.46-1,.73-.85,1.05-.12,12.27,2.41,16.09,17.31,17.34,27.92,1.51,6.14,9.61,5.42,13.48,8.76C38.86,371.51,33.59,380.6,26.77,380.1Z"/><path class="cls-1" d="M386.79,268c-4.56-1.33-.46-8.42-.63-11.79,2.12-18.33,7.67-36.12,29.45-38.48a.43.43,0,0,1,.13.85c-25.46,2.61-27.38,26.89-30.14,46.94,1.17,5.29,24-6.08,28.95-6.1C422.42,258.56,388.38,268.44,386.79,268Z"/><path class="cls-1" d="M219.92,416c-10.07-40.68-22.71-35.8-45.08-6.6-4.89,8.79-6.21,7.59-.71-.5C195.37,379.34,213.21,374.69,219.92,416Z"/><path class="cls-1" d="M206.79,6C196.52,4.67,184.3,5.44,175.31.85c4.4.74,9.58,2.53,14.39,2.49a106.4,106.4,0,0,0,33.51.56c3.46-.16,6.47,0,7.49-3.53C234.23,6.45,210.56,5.24,206.79,6Z"/><path class="cls-1" d="M1.13,226.67a.43.43,0,0,1-.26-.78c7-6.3,18.89-5.38,26.65-9.87-4.06-6.72-13.36-6-19.62-3.5-9.09,3-9.91,1.44-.27-.83,6.42-2.72,17.54-3.24,20.74,4.48-1.25,2.69-6,2.59-8.58,3.48C13.24,220.93,6.25,222.9,1.13,226.67Z"/><path class="cls-1" d="M307.94,416c-.39-7.11,5.89-17.25,11.86-21.12,4.73-2.45,9.43-1,13.81.86,7,2.73,4.14,10.74,3.49,16.36-2.22,11.15-.32-5.68.28-8.42.84-8.15-11.13-10.95-17.18-8C313.05,400.21,310.59,408.19,307.94,416Z"/><path class="cls-1" d="M1.13,180.18c-1.06-.25.16-1.4.67-1.65a33.41,33.41,0,0,0,13.72-10.06c9-10.65,1.7-26.45-11.68-28.3-4.55-.91-4.23-2.55.24-.84C29.91,145.89,21.77,172.39,1.13,180.18Z"/><path class="cls-1" d="M415.68,180c-6.55-1.11-15.69-1.05-16-9.95-1.6-11.41,4.6-20.32,15.6-24.3a.43.43,0,0,1,.33.8c-8.25,3.44-14.32,8.39-15.06,17.28-.46,5.18-.32,12.29,5.69,13.62C407.36,178.24,417.87,178.48,415.68,180Z"/><path class="cls-1" d="M404.38,251.36c-6.56.17-7.54-6.9-6.29-11.71,1.47-7.93,10.42-13.32,17.78-14.4-8.88,4.08-19.32,8.6-17.13,20.84,1.69,7.83,12.49,2.58,17.37,4.42C412.9,251.82,408.13,250.94,404.38,251.36Z"/><path class="cls-1" d="M1.13,103.37c-1.9-1.32,13.13-7.51,14.91-9.15,2.95-1.3.13-4.36-.53-6.45C12,80.24,9.06,72.46.74,68.25c-.51-.22-.15-1,.36-.79,9.66,4.93,12.39,14.33,16.6,23.05C20.28,95.4,12,96.78,9.09,99,6.39,100.35,3.78,102,1.13,103.37Z"/><path class="cls-1" d="M415.67,42.55c-18.49-6.23-9.2-25.53-6.4-38.88.79-4.47,2.42-4.18.84.23-2,12.26-11.86,29.16,3.48,36.79C414.16,41.19,417.15,41.7,415.67,42.55Z"/><path class="cls-1" d="M.92,34.66a.43.43,0,0,1-.22-.8c5-3,10-5.88,14.93-8.95,8.08-7.27-6.55-15.85-7.44-24A.43.43,0,0,1,9,.68C20.3,23.89,26.85,20.29.92,34.66Z"/><path class="cls-1" d="M322.38,14.06c-8,.52-14.22-6.5-15.68-13.43,3.62,4.79,5.89,12.38,13.74,12.46C329.9,14.64,335,7.17,339.5.64,337.55,7.85,330.1,14.37,322.38,14.06Z"/><path class="cls-1" d="M390.3,13.18c-8.15-2-18.65-6.33-24.36-12.44,5.31,3.06,11.25,7.15,17.34,9.33,5.83,3,10,3.62,14.59-2.9,1.77-1.8,2.48-5.71,4.78-6.5C400.92,5.19,395.26,13.57,390.3,13.18Z"/><path class="cls-1" d="M210,416c-5.51-22.06-18-18.77-27.64-.44a.43.43,0,0,1-.77-.4C191,396,207.13,392.94,210,416Z"/><path class="cls-1" d="M321.47,8.15c-4.32.22-8.89-3.48-10.28-7.46,4,2.9,5.13,7.67,11.84,6.49,4.77-.26,6.82-3.77,9.15-6.78C332.1,5,326.06,8.21,321.47,8.15Z"/><path class="cls-1" d="M1.13,169.38c-1.31-.84,1.85-2.4,2.43-3.25,7.11-5.56,4.85-12.07-3-14.95,4.5-.58,9.15,4.58,8.08,8.9C7.79,164.62,4.09,166.74,1.13,169.38Z"/><path class="cls-1" d="M415.47,170.63c-10.54-1.88-8.22-15.95.61-17-5.12,2.44-10.81,11.11-3.31,14.91C413.38,169.15,417,169.63,415.47,170.63Z"/><path class="cls-1" d="M39.32,6.86C37.57,7,30.18,2.35,29.63.77a.43.43,0,0,1,.6-.11c2,1.36,4,2.74,6,4.13,6.2,3.68,3.67-1.72,6.12-4.4C42.8,2.55,41.62,7.12,39.32,6.86Z"/><path class="cls-1" d="M.92,92.37a.44.44,0,0,1-.21-.81c6.87-4.12,2.7-10.35.17-15.13C6,79.59,7.45,89.49.92,92.37Z"/><path class="cls-1" d="M.92,353.09c-.73-.09-.41-.94.2-1,5.19-2.91,3-8.39-.58-11.29C6.07,341.25,6.65,351.81.92,353.09Z"/><path class="cls-1" d="M13.17,416c-3.22-4.92-8.34-4.43-12.68-6.1C3.13,408.59,14.41,412.37,13.17,416Z"/><path class="cls-1" d="M407,415.78c-2.28-.39,9.93-11.27,8.7-7.72C412,409.78,409.76,413.24,407,415.78Z"/><path class="cls-1" d="M109.17,2.13c-.71.08-5.64-.66-3.5-1.53,2.82,1.6,5.9-.5,8.19.34C113.09,2,110.52,1.8,109.17,2.13Z"/><path class="cls-1" d="M1.13,301.41a.43.43,0,0,1-.35-.68c2.28-2.65.65-5,.1-7.58C3.61,294.36,3.44,299.56,1.13,301.41Z"/><path class="cls-1" d="M107.4,230.42c-4.29,0-7-7-1.54-8.33C110.6,221.36,113.16,230,107.4,230.42Zm-1.53-7.49c-4.06,1.1-1.74,6.92,1.72,6.62,4.34-.7,1.82-7.15-1.63-6.61Z"/><path class="cls-1" d="M251,291c-12.79-2.48-14.2-24.17-17-35.38-5.28-29.25-50.49,4-46.2-27.16,5.13-12,.66-25.65,11.72-33.48,9.48-5.67,33.48-14.61,42.08-5.87,6,10.76,14.82,20.46,14.1,33.64-.07,4,1.6,7,4.69,8.48,6.91,4,17.34,4.09,22,13.13,2.58,6.91,9.28,15.1,9.65,23.51-2,8.19-16,9.4-22,14.94C265.13,285.47,257.85,290.06,251,291Zm-35.2-49.9c8.76.16,17.71,4.49,19.07,14.37,2.64,10.42,5,38.73,19.94,33.85,12.27-4.54,19.4-11.18,30.95-15.75,13.15-5.55-2.14-21.1-4.17-28.83-4.3-8.61-14.91-8.86-21.56-12.73-8.95-4.71-2.64-19.8-10.74-28.57-7.29-10.61-6.79-19-22.41-16.81-12.4,2.72-32.19,5.36-33.93,21,.87,9.27-8.76,22.52-2.44,31.28C196.44,245.85,208.11,240.62,215.8,241.07Z"/><path class="cls-1" d="M256.17,278.38c-12.6.16-14.61-32.81-4.43-37C282.05,235.33,283.54,272.94,256.17,278.38Zm-1.06-37c-12,.4-9.88,25.32-5.35,32.12C264.37,290.86,295.16,242.28,255.11,241.4Z"/><path class="cls-1" d="M186.37,288.37c-14.7-2.92-2.06-19.21,7.82-20.22,7.2-3.84,21.48,4,12.29,11.57C200.14,282.68,193.35,287.93,186.37,288.37Zm11-20.4c-6.75,1.91-15.72,5.47-16.74,12.94-.64,2.87,2.06,6.51,5,6.58,7,0,13.9-5.58,20.27-8.46C213.28,273,203.77,267.48,197.4,268Z"/><path class="cls-1" d="M373.5,341.54c-26.05,1.14-29.94-29.29-28.31-48.93,1.66-11.7,14.49-21.29,27.27-21.33,2.66.44,8.44-1.6,8.15,2.74-2.95,16.56,8.07,32.33,9,48.13C389.57,330.13,383.58,343.06,373.5,341.54Zm-3.39-69.42c-16.82,2.16-27.16,16.25-24.3,31.93,1.3,15.57,5.08,35.9,24.86,36.51,11.09,2.81,18-9.3,18.11-18.42.17-7.3-4.1-16.11-6-23.43C374,275,387.84,270.93,370.11,272.12Z"/><path class="cls-1" d="M192.06,171.24c-13.95-4.63-2.4-21.59,1.49-29.48,2.14-7.18,6.46-13.69,14.46-15C229.68,131.64,206.36,170.8,192.06,171.24Zm16.13-43.6c-7.75,1.22-11.77,7.57-13.86,14.5-4.18,7.35-15.25,27.15-.87,28.06C205.5,168.57,227.85,132.54,208.19,127.64Z"/><path class="cls-1" d="M326.68,128.15c-11.77-2-5.3-21,4.4-21.69C346.73,109.08,340.76,128.41,326.68,128.15Zm4.4-20.85c-9.1.75-15.41,20.22-2.87,19.86C340.9,126,344.26,109.41,331.08,107.3Z"/><path class="cls-1" d="M386.09,130.87c-15.75-1.49-.64-34.34,11.32-32.72,9.5-.2,6.18,12,4.8,17.57C399.81,124.89,394.4,130.09,386.09,130.87ZM395.85,99c-10.23.56-24.25,31-8.89,30.94,7.57-1.24,12.15-5.83,14.41-14.44C402.93,109.73,405.91,97.56,395.85,99Z"/><path class="cls-1" d="M367,331.55c-17,.27-17.85-29.74-4.6-36.59C377.81,293.47,388.57,331.75,367,331.55Zm-4.36-35.76c-15.35,8-8.58,45.73,11.89,32.17C384,321.46,374.71,294.77,362.64,295.79Z"/><path class="cls-1" d="M220.46,362.29c-.86-.14-7.08-.55-5-1.73C216.24,361.09,222.35,361.06,220.46,362.29Zm5.12-.58c-1.8-.84,3.75-2.07,4.31-3.17C232.52,358.76,226.37,361.71,225.58,361.71Zm-15.25-1.6c-1.05-.37-6.94-2-4.65-2.71C206.22,358.13,212.08,359,210.33,360.11Zm23.89-4c-1.74-.33,4.09-4.3,4.57-3.71C238.32,354,235.55,355,234.22,356.09Zm-33.05-.69c-3.77-1.61.89-9.87-.7-3C200,353.39,202.4,354.86,201.17,355.4Zm41.58-5.22c-1.84-.38,4.39-4,4.8-3.36C247,348.35,244.14,349.11,242.75,350.18Zm-39.22-3.83c-1.14-1.21,2.34-3.54,3-4.72C208.81,341,204.09,345.82,203.53,346.35Zm48.12-1.5c-1.57-1,3.8-2.88,4.1-3.6l.5.71A40,40,0,0,1,251.65,344.85Zm8.64-5.76c-1.82-.42,4.48-4.11,4.76-3.41C264.52,337.17,261.8,337.94,260.29,339.09ZM210.75,339c-1.75-.61,4.37-4,4.89-3.18C214.86,337.18,212.14,337.77,210.75,339Zm9.42-4.19c-1.5-1.1,2.63-1.53,3.36-2.19.55-.1,1.42-1,1.85-.34.22.58-.55.69-.93.89A36.3,36.3,0,0,1,220.17,334.76Zm49.06-.92c-2-.57,4.87-3.47,5.12-2.68C273.59,332.57,270.73,332.85,269.23,333.84ZM229.3,330c-1.26-.78,2.55-3.3,2.52-4.83C234.18,324.21,230.35,329.76,229.3,330ZM277.36,328c-1-.33.15-1.8-.11-2.64C275.88,317.17,279.79,326.35,277.36,328Zm-44.08-7.34c-1-1.2.12-3.94-.19-5.63C234.35,312.51,234.13,320.94,233.28,320.7Zm40.7-1.76a32,32,0,0,0-4.65-2.54,4.67,4.67,0,0,1,.31-.81C271.09,316.43,275.43,317.81,274,318.94Zm-9.15-4.86c-.71-.39-6.49-3.29-4.11-3.59C261.49,311.56,266.27,313,264.83,314.08Zm-30.9-3.73c-1.19-.18,1.09-5.94,2.1-5.62.32.19.22.57,0,.81C234.91,307,235,309.23,233.93,310.35Zm22.45-2.27c-1.24-1.06-3.93-2.59-4.18-4.19C252.64,303.34,258.07,308,256.38,308.08Zm-17-6.2c-1.53-1.21,3.33-2.3,4.69-2.78,1.5.11,4.53.38,4.82,2C245,299.89,243.26,299.53,239.41,301.88Z"/><path class="cls-1" d="M120.48,328.66c-9.91-.82-32-.85-32.62-13.57.9-16.94,25.06-16.25,35.77-9.12C136.18,312,136.49,330.79,120.48,328.66ZM103.16,302c-10.44,1.08-21.35,13-9.67,20.57,7.74,3.06,37.86,12,38.48-2.31C132.19,307.17,114.74,301.22,103.16,302Z"/><path class="cls-1" d="M264.82,115.51c-8.43-1.46-9.71-20.27-1.62-22.33C273.19,93.66,275.2,113.43,264.82,115.51ZM263.41,94c-6.84,2.42-5.46,14.45-1.23,19.39,5.34,4.41,10-5.5,8.45-9.77C269.88,100.11,268.18,93.67,263.41,94Z"/><path class="cls-1" d="M57.16,126.91c-7.61-2.6-12.61-12.17-15.44-17.61C37,99.59,45,90,54.25,87.77c7.93-1.39,12.17,7.41,17.14,12.21,3.77,4.28,3.53,8.21.07,12.66C67.35,117.53,63.76,125.2,57.16,126.91Zm-3-38.29C45.52,91,38.1,99.75,42.52,109c1.74,3.44,10.78,20.66,17.25,16,5.38-5.83,18.62-16.52,11-24.45C65.85,95.9,61.94,87.34,54.17,88.62Z"/><path class="cls-1" d="M161.6,337c-13.11-1.23-14.3-25.66-.54-27.1C177.79,311.69,181.45,336.82,161.6,337Zm-1.15-26.23c-12.56,2.47-10.33,26.41,2.72,25.24C180.91,334.73,175.21,311.12,160.45,310.73Z"/><path class="cls-1" d="M320.24,354c-9.94-2.22-8.82-18.11-11.45-25.52-1.18-5.73-3.32-15.64,4.56-17.33C324.23,311,334,352.91,320.24,354Zm-7-42c-10.1,1-.65,33.27,3,38.91C333.61,363.62,324.74,310.92,313.23,312Z"/><path class="cls-1" d="M115.78,318.4c-3.44.35-8.56-3.59-4-5.7,1.9-.78,4.19,1.08,6,1.89C119.71,316,117.89,318.7,115.78,318.4Zm-3.07-5.16c-5.74,1.85,3.91,6.7,5,3C117.4,314.35,114.24,314.13,112.71,313.24Z"/><path class="cls-1" d="M157.74,102.39c-6.25-.91-17-14.74-8.79-19.56C157.65,82.09,169.16,98.51,157.74,102.39Zm-8.49-18.75c-6.85,4.22,2.33,15,6.55,17.25,1.85,1.09,3.27.75,4.61-1.11C164.83,93.05,155.92,84.12,149.25,83.64Z"/><path class="cls-1" d="M316.28,188.47c-16.88-2.82.6-20.87-2.25-30.35-6.69-22.82-28.81-28.88-14.55-54.51,1.86-4.06,1.54-6.83-1.12-9.57-8.33-8,14.16-24.6,15.45-11,.22,3.58-3,6.74-2.12,10,1,1,2.94.24,4.18-.13,8.79-2.72,16.73-1.85,22.42,3,31.72,23.69-3.55,33.7-11.32,57.1C322.05,164.87,334.1,185.44,316.28,188.47Zm-7.2-109.81c-4.65.77-8.2,3.52-10.69,7.71-3.84,6.94,6.93,9.8,1.88,17.6-4.15,8.51-8,19.74-.3,27.75,6.23,8.13,11.66,16.94,15,26.52,2.77,9.15-10.91,20.59-2.58,28.14,12.34,5.83,15.4-12.22,12.53-21.28-5.79-26.24,38.39-39.15,21.45-60.36-7.92-8.64-15.57-15.32-29-11.34C301.78,99.15,320.2,79.53,309.08,78.66Z"/><path class="cls-1" d="M163.85,244.44c-10.72-5.08-20.48-26.4-20.79-39.13.89-7.42-7-20.82,3.45-23.28,19.53-2.19,34.21,24.83,25.07,40.67C167,229.21,170.08,242.37,163.85,244.44Zm-17.1-61.58c-9.58,2.14-1.84,15.53-2.83,22.39,1.18,15.79,7.9,27.14,18.16,37.63,6.61,4,4.55-15.86,8.71-20.53C179.67,207.24,165.45,180.87,146.75,182.86Z"/><path class="cls-1" d="M222.55,236c-25.19-.53-29.49,3.13-25.42-25.13,1-13,15.27-16.28,25.68-16.23,10.7.45,17.84,6.62,22,18.42C247.74,227.08,236.2,237.76,222.55,236Zm-13.75-1.23c8,0,17,1.27,24.68-.9,20.8-8.41,8-39.27-10.72-38.36-10,0-23.77,2.93-24.77,15.46C197.56,221.77,191.65,237.31,208.8,234.74Z"/><path class="cls-1" d="M325.29,197.36c-28.52.52-27.49-4.28-22-29.49,3-23.42-22.14-31.79-17-50.32,3.47-10.4-3.24-19.74-2.21-30,5.24-15,21.17-19.63,34.33-24.63,5.93-.85,10.23,1.87,11.6,7.7,2.25,17.36,27.76,22.15,28.64,40.05.52,16.61-18.58,27.23-22.23,42.22C333,162.1,336,197.39,325.29,197.36ZM318.63,63.71c-12.05,4.09-30,10.89-33.71,23.95-.87,10.26,5.69,19.68,2.2,30.11-5,17.85,19.95,26.3,17,50.17-.94,6.61-2.95,13-3.23,19.74-.69,6.14,6.38,7.93,11.22,8.39,5-.56,17.26,3.93,18.09-4.7,3.46-13.1,2.58-25.1,5.34-38.68,2.85-11.38,11.77-17.66,17.41-27.2,12.4-18.21-1.05-28.07-14.14-39.12C327.09,79.33,332.86,62.07,318.63,63.71Z"/><path class="cls-1" d="M190.79,301.67c-10.3-.58-23.18-9.66-22.38-21.05-.15-4.58,1-12.41-2-16.32-9-9.7-15.11-20.43-20.61-32.64-6.78-9.89-7-22.18-12-32.79-4.54-6.93-11.34-15.51-5.71-23.47,9.17-14.35,20.06-7.44,33.23-7.9,11.75-1.88,7.68-17.82,14.5-25,6.31-7,12-14.2,19.28-20.48,4-3.33,7.67-6.73,9-11.57,4.34-13.16-.07-26.76,3.91-39.62,6-14.91,11.47-10.74,17.3,1.55,4.28,7.19,8.77,14.4,12.07,22.26,7.89,14-6.75,23.48-6.22,36.69,0,7,1.05,13.78-3.64,19.95-28.62,44.72-50.93,26.48-46.29,56.33,1.35,9.85-6.39,17.58-6,27.29,1.6,20.22,12.32,22,29.63,21.81,11,.47,17.65,12.06,18.36,22.25-.36,4.76-2.84,8.38-7.36,10.78C208.75,292.54,199.49,301.45,190.79,301.67ZM144.85,166.76a18.68,18.68,0,0,0-16,9.1c-5.39,7.68,1.44,15.89,5.73,22.57,5.1,10.66,5.21,22.86,12,32.82,5.5,12.19,11.51,22.82,20.54,32.53,5.61,9.6-2.45,24,9.31,31,14.25,13,26.29.78,39-5.76,14.59-7.34,2.88-31.17-10.63-31.41-10.7-.81-23.1,1.52-27.8-11.46-6-11.32,0-21.8,3.21-32.67-3.11-42.31,13.06-12.21,46.63-62.66,8.83-16.2-3-17.92,11.32-41.57,2.95-11.54-6.77-24.16-12.16-34-3.14-3.79-4.83-12.12-9.86-13.17-19.7,13,1.8,46.84-20.44,60.66-7.26,6.23-12.91,13.39-19.18,20.37C165.55,163.32,175.14,172.7,144.85,166.76Z"/><path class="cls-1" d="M153.15,119.61c-6.89.19-7.75-15.77-15.33-22.65C129.21,87.25,127.21,63,144,60.78c12.55.72,18.5,17.7,26.88,25.73,6.23,7.82,4.48,15.26-1.16,21.6C165.36,113.61,161,119,153.15,119.61Zm-9.31-58c-16.25,3-13.21,25.43-5.34,34.79,4.95,6.3,8,12,9.65,17.81.58,2.07,2.22,4.49,4.94,4.51,6.94-.09,12.76-6.79,16.66-12.13,4.95-5.9,6-12.44.39-19.58C162,79.25,155.88,62.32,143.84,61.63Z"/><path class="cls-1" d="M158.94,222.62c-7.95-1.5-10.35-17.46-2.23-20.25C167.34,202.89,168.87,220.32,158.94,222.62Zm-2.22-19.41c-6.78,3.18-4.84,16.36,2.11,18.54C167.8,219.39,166.23,203.91,156.72,203.21Z"/><path class="cls-1" d="M112.1,390.61c-6.07-.77-4-12.41-1.51-17.75,4.41-11.51,17.32-10.57,27.37-9.78,5.45-.13,13.77,5.26,4.92,8.85C131.19,376.2,123.76,387.85,112.1,390.61Zm14.31-27.15c-6.48.89-12.42,2.74-15,9.73-1.91,5.13-4.94,14.61.79,16.55,11.41-3.1,18.77-14.31,30.34-18.59C154.64,364.1,130.69,363.19,126.41,363.46Z"/><path class="cls-1" d="M261.65,406.29c-22.82,1.65-14.43-35.24,2.68-37.87C282.26,366.81,277.69,407.86,261.65,406.29Zm2.59-37c-10.46,1.81-14.55,13.8-15.61,23.69-1.35,10.45,10.18,15.2,18.82,11C276.19,397.32,280,368.57,264.24,369.27Z"/><path class="cls-1" d="M31.39,65.07c-6.84.12-13-9.06-9.91-15.69,2.32-4.24,7-5.38,10.83-7.56,11.77-5.89,24.29-18.53,33.29-.89,3.5,6.87-.76,14.13-7.71,15.86C49.27,58.4,40.31,62.89,31.39,65.07Zm19.87-32.5c-6.8,2.13-12,7.42-18.57,10-5.24,2.51-13.39,5.77-10.81,13.08,1.82,6.15,7.06,10.26,12.89,7.79C42.4,60.05,50.59,57.8,57.67,56,72.61,52.3,64.5,31,51.26,32.57Z"/><path class="cls-1" d="M260.58,393c-5.12-.82-2.95-9.59,1.25-10.46C267.23,382.13,264.79,393.1,260.58,393Zm1.18-9.61c-3.73,1-4.93,10.74.24,8.17C263.71,390.21,265.82,383.08,261.76,383.39Z"/><path class="cls-1" d="M29.1,73.62c-8-.29-12.63-8.84-16.29-15.55-5.21-9.07,2.1-17,10.44-20C41,31.37,36.6,24.84,46.07,16.78c17.73,4.94,44.53,29.86,22.11,45-8.4,4.53-18.05,3.73-26.61,7.89C38,71.14,33.34,73.44,29.1,73.62Zm17.17-56c-1.65.39-2.28,1.91-3.07,3.3C36.36,41.46,4.71,37.51,13.59,57.69c11.92,26.1,22.9,9.8,42.57,7C93.54,57.64,70.63,25.43,46.27,17.63Z"/><path class="cls-1" d="M142.94,37.12c-3.72-.12-7.25-1.39-10.89-2-6-1.17-14.92.19-17.91-6.31-2.88-6.89,2.57-13.77,10.24-15.33C132.61,9.87,156.92,34.19,142.94,37.12ZM124.33,14.3c-7.06,1.74-12,7.73-9.41,14.13,2.92,6.14,11.57,4.6,17.25,5.81,10.68,3,19.65,3.65,10.33-9.23C138.52,20.21,131.64,12.84,124.33,14.3Z"/><path class="cls-1" d="M217.89,229.51c-8.81.53-16.1-4.23-14.55-14.08-.09-9.46,8-13.27,16-13C238.41,201.53,239,230,217.89,229.51Zm-1-26.3c-9.74.58-14.73,8.86-12.29,18.37,1.95,9,16.46,7.88,21.74,5.09C240.29,217.66,230.53,201.19,216.91,203.21Z"/><path class="cls-1" d="M58,202.33c-9.14-3.74-4.38-21.05,4.52-22.8C77.78,181.29,69.16,201.51,58,202.33Zm4.52-22c-7.85,2.34-11.42,14.86-5.69,20.66C67.14,203,77.27,182,62.47,180.37Z"/><path class="cls-1" d="M320.19,273.43c-2.87.05-4.79-3.34-6-5.9-2.78-6.38-6.29-12.34-9.51-18.5-7.74-15.13,24.63-10,32.63-24.88,7.09-14.39,30.12-.85,25.21,12.21-1.7,4.56-6.34,7.23-9.68,10.27-6.61,5.52-13.45,11.23-20.11,16.92C328.64,266.43,325.21,272.66,320.19,273.43Zm25-54.86c-3.26.94-5.25,3.57-7.19,6.1-8.22,12.75-24.29,10.05-33.2,17.85-1.62,7.09,6.4,14.32,8.46,21,2,4.22,5,12.69,10.56,7.19,8.89-8.82,19-16.78,28.46-24.79,3.18-2.91,7.82-5.58,9.42-9.9C365.07,226.94,354.21,218.15,345.2,218.57Z"/><path class="cls-1" d="M321.12,369.8c-25.72,2.54-11.6-16.42-18.88-41a53.29,53.29,0,0,1-1.44-12.45c-.26-10.89,12.63-20.37,20.76-10.66C329.81,317,351.36,374.32,321.12,369.8Zm-9.54-67.37c-13.73,4.59-9.72,21.09-7.41,31.94,1.81,8.61,1.55,17.68,1.69,26.38-.21,4.31,3.09,8.77,8.58,8.1,6.48-.7,16,2.89,19.45-4.74,4-9.34,1.14-21.4-1.7-30.41C327.09,321.67,326.86,302.9,311.58,302.43Z"/></g></g></svg>