<svg width="147" height="37" viewBox="0 0 147 37" fill="none" xmlns="http://www.w3.org/2000/svg">
<path d="M48.78 29.3C47.85 29.3 47.095 29.12 46.515 28.76C45.945 28.4 45.525 27.94 45.255 27.38C44.995 26.82 44.865 26.23 44.865 25.61V16.685H42.51L42.795 14.18H44.865V10.685L48 10.355V14.18H51.63V16.685H48V24.02C48 24.88 48.05 25.505 48.15 25.895C48.25 26.275 48.495 26.515 48.885 26.615C49.275 26.715 49.895 26.765 50.745 26.765H51.585L51.315 29.3H48.78ZM53.0803 29V14.18H55.8403L56.0653 16.25C56.6653 15.53 57.3053 14.955 57.9853 14.525C58.6753 14.095 59.4203 13.88 60.2203 13.88C60.4603 13.88 60.6853 13.905 60.8953 13.955L60.6253 17.21C60.4553 17.17 60.2803 17.14 60.1003 17.12C59.9303 17.1 59.7503 17.09 59.5603 17.09C58.8403 17.09 58.1803 17.255 57.5803 17.585C56.9903 17.905 56.5703 18.27 56.3203 18.68V29H53.0803ZM68.111 29.3C66.541 29.3 65.196 28.955 64.076 28.265C62.966 27.565 62.116 26.635 61.526 25.475C60.946 24.305 60.656 23.015 60.656 21.605C60.656 20.185 60.946 18.89 61.526 17.72C62.116 16.55 62.966 15.62 64.076 14.93C65.196 14.23 66.541 13.88 68.111 13.88C69.691 13.88 71.036 14.23 72.146 14.93C73.266 15.62 74.116 16.55 74.696 17.72C75.286 18.89 75.581 20.185 75.581 21.605C75.581 23.015 75.286 24.305 74.696 25.475C74.116 26.635 73.266 27.565 72.146 28.265C71.036 28.955 69.691 29.3 68.111 29.3ZM68.111 26.615C69.491 26.615 70.546 26.165 71.276 25.265C72.016 24.365 72.386 23.145 72.386 21.605C72.386 20.055 72.016 18.825 71.276 17.915C70.546 17.005 69.491 16.55 68.111 16.55C66.751 16.55 65.701 17.005 64.961 17.915C64.221 18.825 63.851 20.055 63.851 21.605C63.851 23.145 64.221 24.365 64.961 25.265C65.701 26.165 66.751 26.615 68.111 26.615ZM77.3838 36.26V14.18H79.8738L80.4588 17.165L79.5588 16.685C80.1988 15.835 80.9538 15.16 81.8238 14.66C82.6938 14.15 83.7588 13.895 85.0188 13.895C86.4088 13.895 87.5938 14.245 88.5738 14.945C89.5538 15.635 90.2988 16.565 90.8088 17.735C91.3188 18.895 91.5738 20.185 91.5738 21.605C91.5738 23.015 91.3238 24.305 90.8238 25.475C90.3338 26.635 89.6038 27.565 88.6338 28.265C87.6638 28.955 86.4588 29.3 85.0188 29.3C83.8488 29.3 82.8338 29.095 81.9738 28.685C81.1238 28.265 80.4188 27.625 79.8588 26.765L80.5188 26.15V36.26H77.3838ZM84.4788 26.615C85.6988 26.615 86.6488 26.165 87.3288 25.265C88.0188 24.365 88.3638 23.145 88.3638 21.605C88.3638 20.055 88.0188 18.83 87.3288 17.93C86.6488 17.03 85.6988 16.58 84.4788 16.58C83.6488 16.58 82.9238 16.775 82.3038 17.165C81.6938 17.555 81.2138 18.125 80.8638 18.875C80.5238 19.615 80.3538 20.525 80.3538 21.605C80.3538 22.705 80.5238 23.625 80.8638 24.365C81.2138 25.105 81.6938 25.665 82.3038 26.045C82.9238 26.425 83.6488 26.615 84.4788 26.615ZM94.2209 36.26L97.5809 28.205L91.4159 14.18H94.8959L99.1709 24.56L103.206 14.18H106.686L97.5209 36.26H94.2209ZM107.693 29V6.5H110.828V20.6L115.913 14.18H119.603L113.918 21.17L119.738 29H116.048L110.828 21.875V29H107.693ZM126.424 29.3C125.094 29.3 123.999 29.035 123.139 28.505C122.279 27.975 121.639 27.205 121.219 26.195C120.799 25.185 120.589 23.96 120.589 22.52V14.18H123.724V22.085C123.724 23.575 123.974 24.7 124.474 25.46C124.984 26.22 125.814 26.6 126.964 26.6C127.794 26.6 128.529 26.4 129.169 26C129.819 25.6 130.299 24.99 130.609 24.17L130.099 25.82V14.18H133.234V29H130.384L129.994 26.24L130.744 26.96C130.314 27.68 129.729 28.25 128.989 28.67C128.259 29.09 127.404 29.3 126.424 29.3ZM140.137 29.3C138.967 29.3 137.967 29.17 137.137 28.91C136.307 28.65 135.622 28.375 135.082 28.085L135.412 25.235C135.922 25.585 136.567 25.925 137.347 26.255C138.137 26.575 139.027 26.735 140.017 26.735C140.877 26.735 141.532 26.595 141.982 26.315C142.442 26.025 142.672 25.6 142.672 25.04C142.672 24.58 142.537 24.21 142.267 23.93C141.997 23.64 141.642 23.4 141.202 23.21C140.762 23.02 140.297 22.845 139.807 22.685C139.037 22.435 138.307 22.145 137.617 21.815C136.937 21.485 136.382 21.045 135.952 20.495C135.532 19.935 135.322 19.195 135.322 18.275C135.322 17.475 135.522 16.74 135.922 16.07C136.322 15.4 136.927 14.87 137.737 14.48C138.557 14.08 139.597 13.88 140.857 13.88C141.817 13.88 142.632 13.985 143.302 14.195C143.982 14.395 144.587 14.635 145.117 14.915L144.787 17.69C144.257 17.28 143.682 16.94 143.062 16.67C142.452 16.39 141.737 16.25 140.917 16.25C140.157 16.25 139.552 16.4 139.102 16.7C138.652 16.99 138.427 17.435 138.427 18.035C138.427 18.675 138.692 19.14 139.222 19.43C139.752 19.72 140.577 20.055 141.697 20.435C142.207 20.605 142.707 20.81 143.197 21.05C143.687 21.28 144.132 21.56 144.532 21.89C144.942 22.22 145.267 22.63 145.507 23.12C145.747 23.61 145.867 24.195 145.867 24.875C145.867 25.655 145.677 26.38 145.297 27.05C144.927 27.72 144.322 28.265 143.482 28.685C142.652 29.095 141.537 29.3 140.137 29.3Z" fill="#042F24"/>
<path d="M17.4062 29.3541L17.4063 25.5016C17.4063 22.3472 17.4704 19.494 17.4704 19.494V16.0695L18.2697 15.5382L19.1332 16.0695V19.494V25.5016V29.3541H17.4062Z" fill="#042F24" stroke="#042F24"/>
<path d="M25.1779 16.8337C26.9049 18.9925 27.2503 21.4103 25.1779 24.1734C24.8649 23.3238 24.3933 22.4477 23.944 21.6747C23.944 21.3336 24.2539 20.8443 24.3144 20.7195C23.8827 20.7195 23.6294 20.8443 23.4509 20.8443L23.446 20.8361C23.1111 20.2788 22.839 19.8259 22.7315 19.5504C22.7315 19.323 23.4509 18.129 23.4509 18.129C23.4509 18.129 22.2295 18.9069 22.1304 18.7894C21.8176 18.4188 21.5011 18.081 21.1849 17.774L20.4287 17.0947C18.889 15.8193 17.4348 15.244 16.543 15.1068C16.9747 14.2433 18.4996 13.8115 19.1334 13.8115C22.1556 13.8115 24.3144 15.5385 25.1779 16.8337Z" fill="#042F24"/>
<path d="M5.74921 8.19848C4.45397 8.77414 1.69079 10.7026 1 13.8112C2.54915 13.5441 3.98745 13.3631 5.31746 13.2521L5.74921 12.0842L6.30725 13.181C6.78557 13.0712 7.3888 13.0248 8.06787 13.0282L8.77143 11.2207L9.31296 13.0812C9.81063 13.1185 10.3292 13.1741 10.8542 13.2441L11.7937 12.0842L11.7714 13.3794C14.4998 13.82 17.1812 14.5809 17.8381 15.1064C17.982 14.3868 18.2698 12.5159 16.9746 11.2207C12.139 6.38515 7.90794 7.23905 5.74921 8.19848Z" fill="#042F24" stroke="#042F24" stroke-width="0.2"/>
<path d="M13.8134 13.8115C14.8208 13.8115 17.181 14.1569 18.5626 15.5385C17.0627 15.8112 15.2892 16.8106 13.5502 18.0798L12.5182 17.6972L12.7338 18.6966C12.4299 18.9338 12.1285 19.1772 11.8314 19.4242L9.92772 18.5607L10.8256 20.2877C10.5089 20.5679 10.1999 20.8491 9.90097 21.1277L9.06422 20.7195L9.23505 21.7597C8.30086 22.6626 7.49615 23.5089 6.90547 24.1734C6.47372 23.166 5.78293 20.7195 6.47372 18.9925C8.20071 14.8477 12.0864 13.8115 13.8134 13.8115Z" fill="#042F24"/>
<path d="M23.8822 10.6861C20.4283 11.3769 18.7013 14.14 18.2695 15.4353C21.2345 14.7764 22.4398 14.3689 24.5709 14.5964L25.6092 13.2766V14.7443C26.0035 14.8125 26.4316 14.8984 26.9045 15.0035C27.1409 15.0561 27.3751 15.1202 27.6067 15.1946L28.6314 14.14V15.5958C29.1225 15.822 29.7663 16.3312 30.2184 16.6252L31.2809 16.094L30.9683 17.0388C32.4965 18.2266 33.6771 19.6441 34.2441 20.6162C35.1076 19.6088 35.5394 16.2988 33.8124 14.14C30.9453 10.5562 28.1997 9.82258 23.8822 10.6861Z" fill="#042F24"/>
<path d="M18.7016 15.1064C18.4487 15.3593 18.2945 15.4641 18.2392 15.5075L18.2699 15.5382C18.2102 15.5382 18.2 15.5382 18.2392 15.5075L17.838 15.1064C17.4063 13.5233 17.2336 9.75276 19.9968 7.33498C22.76 4.9172 26.3291 6.32757 27.7683 7.33498C27.0756 7.46485 26.1355 7.75099 25.1126 8.22865L23.8825 7.76672L24.0635 8.77408C23.7913 8.93065 23.5173 9.10063 23.2443 9.2846L21.7238 8.63021L22.1555 10.1035C20.7205 11.3072 19.4226 12.9434 18.7016 15.1064Z" fill="#042F24"/>
</svg>
